<?xml version="1.0" encoding="UTF-8" standalone="no"?>
<!-- Created with Inkscape (http://www.inkscape.org/) -->

<svg
   xmlns:osb="http://www.openswatchbook.org/uri/2009/osb"
   xmlns:dc="http://purl.org/dc/elements/1.1/"
   xmlns:cc="http://creativecommons.org/ns#"
   xmlns:rdf="http://www.w3.org/1999/02/22-rdf-syntax-ns#"
   xmlns:svg="http://www.w3.org/2000/svg"
   xmlns="http://www.w3.org/2000/svg"
   xmlns:xlink="http://www.w3.org/1999/xlink"
   xmlns:sodipodi="http://sodipodi.sourceforge.net/DTD/sodipodi-0.dtd"
   xmlns:inkscape="http://www.inkscape.org/namespaces/inkscape"
   width="16"
   height="16"
   id="svg2"
   version="1.1"
   inkscape:version="0.48.1 r9760"
   sodipodi:docname="favicon.svg"
   style="display:inline"
   inkscape:export-filename="/home/jj/projects/dyad/website/favicon.ico.png"
   inkscape:export-xdpi="90.41185"
   inkscape:export-ydpi="90.41185">
  <defs
     id="defs4">
    <linearGradient
       id="linearGradient3821"
       osb:paint="gradient">
      <stop
         style="stop-color:#004ddc;stop-opacity:1;"
         offset="0"
         id="stop3823" />
      <stop
         style="stop-color:#004ddc;stop-opacity:0;"
         offset="1"
         id="stop3825" />
    </linearGradient>
    <linearGradient
       inkscape:collect="always"
       id="linearGradient3903">
      <stop
         style="stop-color:#000000;stop-opacity:1;"
         offset="0"
         id="stop3905" />
      <stop
         style="stop-color:#000000;stop-opacity:0;"
         offset="1"
         id="stop3907" />
    </linearGradient>
    <linearGradient
       inkscape:collect="always"
       xlink:href="#linearGradient3903"
       id="linearGradient3909"
       x1="658.10516"
       y1="696.60577"
       x2="658.10516"
       y2="-182.73082"
       gradientUnits="userSpaceOnUse"
       gradientTransform="matrix(0.12712489,0,0,0.12712489,-86.815775,224.75694)" />
  </defs>
  <sodipodi:namedview
     id="base"
     pagecolor="#ffffff"
     bordercolor="#666666"
     borderopacity="1.0"
     inkscape:pageopacity="0.0"
     inkscape:pageshadow="2"
     inkscape:zoom="45.254834"
     inkscape:cx="9.9626863"
     inkscape:cy="9.2150039"
     inkscape:document-units="px"
     inkscape:current-layer="layer2"
     showgrid="true"
     inkscape:window-width="1050"
     inkscape:window-height="1680"
     inkscape:window-x="0"
     inkscape:window-y="0"
     inkscape:window-maximized="0"
     fit-margin-top="0"
     fit-margin-left="0"
     fit-margin-right="0"
     fit-margin-bottom="0"
     inkscape:showpageshadow="false"
     showborder="true"
     inkscape:snap-page="true"
     inkscape:snap-global="false">
    <inkscape:grid
       type="xygrid"
       id="grid3805"
       empspacing="5"
       visible="true"
       enabled="true"
       snapvisiblegridlinesonly="true" />
  </sodipodi:namedview>
  <metadata
     id="metadata7">
    <rdf:RDF>
      <cc:Work
         rdf:about="">
        <dc:format>image/svg+xml</dc:format>
        <dc:type
           rdf:resource="http://purl.org/dc/dcmitype/StillImage" />
        <dc:title></dc:title>
      </cc:Work>
    </rdf:RDF>
  </metadata>
  <g
     inkscape:groupmode="layer"
     id="layer2"
     inkscape:label="trace"
     transform="translate(116.9665,-335.53588)">
    <path
       style="fill:none;stroke:#000000;stroke-width:1.221;stroke-miterlimit:4;stroke-opacity:1;stroke-dasharray:none"
       d="m -113.01273,351.41084 c 0.82378,-1e-5 1.17196,-0.29336 1.28096,-0.778 0.0659,-0.2932 -0.0776,-0.69795 -0.17405,-1.00718 0.30774,-0.17335 0.80987,-0.42967 0.88573,-0.57543 0.0448,-0.0861 -0.10095,-0.44767 -0.20469,-0.63003 0.25941,-0.0742 0.58195,-0.32832 0.61332,-0.40227 0.0458,-0.10789 -0.13404,-0.55021 -0.44149,-0.98882 0.65622,-0.26169 1.49986,-0.4499 1.40916,-0.75197 -0.0868,-0.28893 -1.53971,-2.31009 -1.55729,-2.92754 -0.0109,-0.39944 0.0438,-0.47901 0.15929,-1.1935 0.21178,0.24234 0.41455,0.368 0.61284,0.5631 0.36388,-0.43312 0.46738,-0.87509 0.64192,-1.44089 0.36335,-1.17773 -0.35736,-2.90421 -0.99885,-3.60849 -0.96449,-1.0589 -2.89779,-1.82104 -4.21401,-2.01254"
       id="path3127"
       inkscape:connector-curvature="0"
       sodipodi:nodetypes="cscscscssccssc" />
    <path
       style="fill:#c9e2ff;fill-opacity:1;stroke:none;stroke-width:1.021;stroke-miterlimit:4;stroke-dasharray:none"
       d="m -115.49681,343.545 0,-7.7519 0.29204,0 c 0.31882,0 0.48254,0.0262 0.95798,0.15271 1.32089,0.35173 2.54416,0.98879 3.2433,1.68908 0.72445,0.72561 1.25304,2.14438 1.17167,3.14479 -0.0202,0.2484 -0.0403,0.33936 -0.13859,0.62924 -0.10367,0.30542 -0.2558,0.6389 -0.39457,0.86471 -0.1042,0.16955 -0.12011,0.18687 -0.13991,0.15208 -0.0123,-0.0216 -0.097,-0.10661 -0.1883,-0.18889 -0.0914,-0.0822 -0.24314,-0.22585 -0.3374,-0.31902 -0.0943,-0.0932 -0.17649,-0.16449 -0.18275,-0.15849 -0.006,0.006 -0.004,0.14059 0.006,0.29907 0.0211,0.34709 0.002,0.60278 -0.0623,0.85672 -0.0713,0.28002 -0.0681,0.51606 0.0109,0.74549 0.11913,0.34818 0.45022,0.94441 1.12572,2.02751 0.13345,0.21396 0.27176,0.44535 0.30736,0.51421 l 0.0647,0.1252 -0.0466,0.0474 c -0.0898,0.0915 -0.35166,0.20038 -1.2989,0.54008 -0.0549,0.0196 -0.10488,0.0437 -0.11121,0.0536 -0.006,0.009 0.0598,0.13289 0.1471,0.27342 0.15955,0.25693 0.29661,0.54545 0.3174,0.6681 0.009,0.056 5.7e-4,0.0758 -0.0587,0.13018 -0.0905,0.0831 -0.35306,0.23186 -0.4806,0.27243 -0.0548,0.0175 -0.0997,0.0402 -0.0997,0.0506 0,0.0105 0.0328,0.0812 0.0728,0.15733 0.0746,0.1417 0.17718,0.41199 0.17718,0.4665 0,0.0405 -0.19446,0.17118 -0.5846,0.39258 -0.17692,0.10043 -0.32373,0.18434 -0.32623,0.18654 -0.002,0.002 0.0143,0.0618 0.0371,0.13259 0.0962,0.2969 0.16537,0.60997 0.16514,0.74658 -5.1e-4,0.32585 -0.16248,0.58385 -0.44637,0.71105 -0.27192,0.12184 -0.28482,0.12279 -1.80866,0.13195 l -1.39064,0.008 0,-7.7519 z"
       id="path3769"
       inkscape:connector-curvature="0" />
    <path
       inkscape:connector-curvature="0"
       id="path3023"
       style="font-size:133.68193054px;font-style:normal;font-variant:normal;font-weight:300;font-stretch:normal;text-align:start;line-height:125%;letter-spacing:0px;word-spacing:0px;writing-mode:lr-tb;text-anchor:start;fill:#000000;fill-opacity:1;stroke:#000000;stroke-width:0.73357821;stroke-miterlimit:4;stroke-opacity:1;stroke-dasharray:none;font-family:Lato;-inkscape-font-specification:Lato Light"
       d="m -102.30969,343.53588 c -2e-5,1.20493 -0.18504,2.27919 -0.55508,3.2228 -0.36234,0.94361 -0.87503,1.74205 -1.53803,2.39532 -0.6553,0.65325 -1.44167,1.15048 -2.35908,1.49162 -0.91742,0.34116 -1.93122,0.51174 -3.04135,0.51174 l -5.78208,0 0,-15.24296 5.78208,0 c 1.11013,10e-6 2.12393,0.1706 3.04135,0.51174 0.91741,0.34116 1.70378,0.83838 2.35908,1.49162 0.663,0.6533 1.17569,1.45171 1.53803,2.39533 0.37004,0.94361 0.55506,2.01788 0.55508,3.22279 m -0.30067,0 c -2e-5,-1.18313 -0.17731,-2.232 -0.53195,-3.14657 -0.34693,-0.92184 -0.83648,-1.6985 -1.46864,-2.33 -0.63218,-0.63147 -1.39156,-1.11054 -2.27813,-1.43721 -0.87887,-0.32661 -1.85027,-0.48993 -2.91415,-0.48994 l -5.50455,0 0,14.80744 5.50455,0 c 1.06388,0 2.03528,-0.16332 2.91415,-0.48995 0.88657,-0.32665 1.64595,-0.80572 2.27813,-1.43719 0.63216,-0.63148 1.12171,-1.40453 1.46864,-2.31911 0.35464,-0.92183 0.53193,-1.97431 0.53195,-3.15747" />
  </g>
</svg>
